<svg id="Layer_1" data-name="Layer 1" xmlns="http://www.w3.org/2000/svg" viewBox="0 0 250 80">
    <title>logo</title>
    <path d="M15.6,21.54l9.82,24.74H20l-2.12-5.89H7.9L5.85,46.28H.74l9.73-24.74ZM9.47,36h6.87l-3.5-9.51Z" fill="#1b3665"/>
    <path d="M39.36,21.54q5.26,0,7.86,2.79t3,8.61q0,.52,0,1t0,1.07a17.89,17.89,0,0,1-.83,5,9,9,0,0,1-2.7,4.12,7.41,7.41,0,0,1-3.39,1.76,18.52,18.52,0,0,1-3.8.38H28.8V21.54Zm-.1,4.31H33.64V42h5.62a.3.3,0,0,0,.14,0h.14a9.52,9.52,0,0,0,2.07-.22,3.2,3.2,0,0,0,1.78-1.15,5.67,5.67,0,0,0,1.08-2.17,14.62,14.62,0,0,0,.4-2.45q0-.52,0-1V32.86a9.68,9.68,0,0,0-.06-1.12,12,12,0,0,0-.37-2.38,5.11,5.11,0,0,0-1.08-2.07,3.29,3.29,0,0,0-1.78-1.17,8.91,8.91,0,0,0-2.07-.24h-.29Z" fill="#1b3665"/>
    <path d="M62.44,21.54l5.87,19,5.87-19h7.09V46.28H76.53L76.91,27,71,46.28H65.87l-6.1-19.47.48,19.47H55.31V21.54Z" fill="#1b3665"/>
    <path d="M87.82,46.28V21.54H92.9V46.28Z" fill="#1b3665"/>
    <path d="M111.38,21.54q.35,0,.69,0c.22,0,.45,0,.69,0a11,11,0,0,1,2.58.45,5,5,0,0,1,2.23,1.41,5.82,5.82,0,0,1,1.3,2.1,9.39,9.39,0,0,1,.53,2.48c0,.16,0,.32,0,.48s0,.32,0,.48a8.24,8.24,0,0,1-1.11,4.46,5.56,5.56,0,0,1-3.55,2.5l5.75,10.3h-5.46L110,36.56h-5.71v9.72H99.44V21.54Zm-1.16,4.41h-5.94v6.24h5.94a.27.27,0,0,0,.13,0h.13a7.6,7.6,0,0,0,2.81-.5q1.27-.5,1.24-2.64t-1.33-2.65a9.29,9.29,0,0,0-3-.45Z" fill="#1b3665"/>
    <path d="M137,21.54l9.82,24.74h-5.39l-2.12-5.89h-10l-2.05,5.89h-5.1l9.73-24.74ZM130.9,36h6.87l-3.5-9.51Z" fill="#1b3665"/>
    <path d="M155.28,45.92a6.26,6.26,0,0,1-3.52-2.19A7.08,7.08,0,0,1,150,40.25a22,22,0,0,1-.35-4V21.54h4.85V35.11a14.28,14.28,0,0,0,.71,5.27q.74,1.83,4.56,1.83l5.71,0v4.1h-6.13A22,22,0,0,1,155.28,45.92Z" fill="#1b3665"/>
    <rect x="0.76" y="49.56" width="164.72" height="2.21" fill="#1b3665"/>
    <path d="M18.9,61.74a3.05,3.05,0,0,1-2.66,1.42,4,4,0,0,1,0-8,3,3,0,0,1,2.53,1.2l-.6.47a2.28,2.28,0,0,0-1.91-1,3.35,3.35,0,0,0,0,6.65,2.38,2.38,0,0,0,2.09-1.13Z" fill="#1b3665"/>
    <path d="M25,63.16a4,4,0,1,1,3.7-4A3.75,3.75,0,0,1,25,63.16Zm0-7.33A3.34,3.34,0,1,0,28,59.16,3.06,3.06,0,0,0,25,55.83Z" fill="#1b3665"/>
    <path d="M37,61.84h0V55.35h.72V63h-.9L32.7,56.41h0V63H32V55.35h.9Z" fill="#1b3665"/>
    <path d="M43.6,63h-.72V56H40.5v-.69H46V56H43.6Z" fill="#1b3665"/>
    <path d="M48.09,63H47.3l3.07-7.62h.7l3,7.62h-.8l-.78-2H48.87Zm1-2.71h3.13l-1.56-4Z" fill="#1b3665"/>
    <path d="M57.59,63h-.72V55.35h.72Z" fill="#1b3665"/>
    <path d="M66.22,61.84h0V55.35H67V63h-.9l-4.13-6.55h0V63h-.72V55.35h.9Z" fill="#1b3665"/>
    <path d="M71.27,62.28h3.8V63H70.55V55.35H75V56H71.27v2.63h3.44v.68H71.27Z" fill="#1b3665"/>
    <path d="M78.92,63h-.72V55.35h2.09c1.4,0,2.43.55,2.43,2a1.91,1.91,0,0,1-1.81,2L83,63h-.88l-2-3.56h-1.2Zm0-4.23h1.25c1.15,0,1.81-.45,1.81-1.36S81.27,56,80.2,56H78.92Z" fill="#1b3665"/>
    <path d="M90.84,62.28h3.31V63h-4V55.35h.72Z" fill="#1b3665"/><path d="M97.66,63h-.72V55.35h.72Z" fill="#1b3665"/>
    <path d="M106.29,61.84h0V55.35H107V63h-.9L102,56.41h0V63h-.72V55.35h.9Z" fill="#1b3665"/>
    <path d="M111.34,62.28h3.8V63h-4.52V55.35H115V56h-3.68v2.63h3.44v.68h-3.44Z" fill="#1b3665"/>
    <path d="M121.7,56.57a1.67,1.67,0,0,0-1.46-.76,1.43,1.43,0,0,0-1.51,1.43c0,1,.75,1.22,1.54,1.5,1,.36,2.11.7,2.11,2.23a2.15,2.15,0,0,1-2.32,2.2A2.67,2.67,0,0,1,117.82,62l.62-.5a1.86,1.86,0,0,0,1.62,1A1.5,1.5,0,0,0,121.64,61c0-1.07-.83-1.33-1.73-1.64s-1.9-.75-1.9-2.13a2.11,2.11,0,0,1,2.27-2.1,2.41,2.41,0,0,1,2,.93Z" fill="#1b3665"/>
    <path d="M130.56,63h-.72V55.35h.72Z" fill="#1b3665"/>
    <path d="M139.18,61.84h0V55.35h.72V63H139l-4.13-6.55h0V63h-.72V55.35h.9Z" fill="#1b3665"/>
    <path d="M149.5,61.74a3.05,3.05,0,0,1-2.66,1.42,4,4,0,0,1,0-8,3,3,0,0,1,2.53,1.2l-.6.47a2.28,2.28,0,0,0-1.91-1,3.35,3.35,0,0,0,0,6.65,2.38,2.38,0,0,0,2.09-1.13Z" fill="#1b3665"/>
    <path d="M152.81,63a.58.58,0,1,1,.54-.58A.56.56,0,0,1,152.81,63Z" fill="#1b3665"/><path d="M184.92,30.64c.49-.88.95-1.79,1.49-2.63a29.3,29.3,0,0,1,1.86-2.62,19.2,19.2,0,0,1,2.41-2.46c.67-.58,1.32-1.2,2-1.72s1.69-1.18,2.55-1.72,1.78-1.08,2.69-1.58a48.14,48.14,0,0,1,4.75-2.2c1.32-.55,2.62-1.13,4-1.64a1.45,1.45,0,0,1,1.31.1,2.23,2.23,0,0,1,1,1.79,10.44,10.44,0,0,1-.29,3.51c-.27,1.3-.61,2.59-.9,3.89a.75.75,0,0,0,.1.46,1.36,1.36,0,0,1-.4,1.83,5.26,5.26,0,0,1-2,.79c-1,.23-1.91.43-2.86.7s-1.85.58-2.76.92-2,.79-3,1.22c-1.4.63-2.79,1.28-4.18,1.94-.84.4-1.67.84-2.5,1.28a21.38,21.38,0,0,0-2.89,1.88,16,16,0,0,0-1.25,1.07,3.54,3.54,0,0,0-.57.73c-.13.22-.24.26-.42.08a1.17,1.17,0,0,0-.23-.13c.58-.8,1.17-1.58,1.73-2.38a15.58,15.58,0,0,1,2.3-2.38c.51-.48,1.1-.84,1.64-1.29a22.62,22.62,0,0,1,3.83-2.42c1.28-.71,2.63-1.27,4-1.86.89-.39,1.8-.74,2.71-1,1.19-.4,2.39-.74,3.59-1.1.47-.14.95-.26,1.42-.39.17,0,.21-.15.23-.34,0-.63.12-1.26.19-1.89s.11-1.1.16-1.66q.1-1.2.2-2.4c0-.18,0-.37,0-.59-.55.2-1.07.37-1.58.59-1.16.49-2.32,1-3.46,1.52-1.72.82-3.43,1.65-5.11,2.54-1,.55-2,1.2-3,1.85s-1.72,1.17-2.56,1.79-1.37,1.07-2,1.65c-.48.42-.9.92-1.37,1.35a12.18,12.18,0,0,0-1.63,2,7.62,7.62,0,0,0-.51.92c-.15.3-.15.31-.44.16Z" fill="#1c3765"/>
    <path d="M176.44,43.81a5.29,5.29,0,0,0-2.52-.24,15.17,15.17,0,0,1-2.54.13,3.26,3.26,0,0,1-1.16-.34.7.7,0,0,1-.18-.6,2.56,2.56,0,0,1,.42-.93,12.77,12.77,0,0,1,2.39-2.3l1.54-1.21.3.35a14.67,14.67,0,0,0-2.33,3.58l.92-.13a9.8,9.8,0,0,1,2.66-.3c.39,0,.77.22,1.16.3s.59.38.72.77a.75.75,0,0,1-.31.92c-.32.18-.31.45-.34.73a9.77,9.77,0,0,0,.19,3.06c.08.47.14.95.22,1.48.22-.48.41-.92.61-1.35q.63-1.33,1.28-2.64c.26-.54.52-1.08.83-1.59A3.87,3.87,0,0,1,181.46,42a.65.65,0,0,1,1,.17.27.27,0,0,0,.24.06c.31-.09.62-.23.94-.3.48-.11,1-.19,1.44-.28.18,0,.36,0,.6-.08l-.79-.37A6.42,6.42,0,0,1,183,40a1,1,0,0,1-.31-1.2s0-.07,0-.07c.41-.25.29-.69.33-1.06.09-.74.16-1.48.25-2.23s.16-1.34.25-2.09l-1.27.82a14.09,14.09,0,0,0-2.5,2.37,1.08,1.08,0,0,1-1,.19,7.13,7.13,0,0,1-1.87-1.34l-2.1-2c0,.28.07.57.11.86a15.5,15.5,0,0,1,.29,3.34.3.3,0,0,1-.46.28c-.37-.17-.45-.53-.58-.87a9.32,9.32,0,0,1-.52-2.31,10,10,0,0,1-.18-2.2,5.77,5.77,0,0,1,.3-1.2c.08-.25.29-.28.52-.2a3.4,3.4,0,0,1,1.09.79c.68.61,1.36,1.23,2,1.85.2.19.37.41.57.6s.53.51.8.75a.21.21,0,0,0,.21,0L180.54,34c.68-.47,1.35-1,2.05-1.38a9,9,0,0,1,1.61-.71,1.52,1.52,0,0,1,.7.05s.08.14.09.22a4.61,4.61,0,0,1-.31,1.83c-.3.95-.62,1.89-.9,2.84-.14.48-.21,1-.3,1.43.88.54,1.74,1,2.58,1.58a19.83,19.83,0,0,1,1.77,1.23,9.42,9.42,0,0,1,1.19,1.2,1.38,1.38,0,0,1,.21.63c0,.15-.36.46-.57.48a6.8,6.8,0,0,1-1,.1,7.71,7.71,0,0,1-1.24-.17c-.65-.14-1.28-.34-1.93-.44a4.43,4.43,0,0,0-1.09,0c-.32,0-.63.08-.89.12-.42.7-.81,1.38-1.24,2s-.75,1-1.14,1.46a12.06,12.06,0,0,0-2,3.27c-.18.46-.23,1-.41,1.45a2.52,2.52,0,0,1-.56.78c-.08.09-.29.07-.44.06-.42,0-.62-.36-.8-.72a1.25,1.25,0,0,1-.15-.62c0-.45,0-.9,0-1.35,0-.65.12-1.29.19-1.94s.12-1.17.21-1.75.18-1.1.27-1.65C176.43,44,176.43,43.9,176.44,43.81Z" fill="#1c3765"/>
    <path d="M181.28,32.55c0-.11,0-.22,0-.33a7.57,7.57,0,0,1,.56-2.88c.31-.79.6-1.59,1-2.34.45-.92,1-1.79,1.49-2.68.3-.53.63-1,1-1.54s.74-1,1.13-1.52.93-1.23,1.44-1.8,1.14-1.2,1.71-1.8c.24-.25.47-.5.73-.72a11.57,11.57,0,0,1,2.87-2c.16-.07.31-.17.46-.23a2.59,2.59,0,0,1,2.17,0,1.43,1.43,0,0,1,.41.31c.16.16.29.36.46.57-.48.24-1,.45-1.42.71-.73.4-1.45.83-2.17,1.26a11,11,0,0,0-1.29.85A24.8,24.8,0,0,0,189,20.7c-.42.45-.91.82-1.32,1.28a20.06,20.06,0,0,0-2.51,3.28c-.55.93-1.09,1.87-1.59,2.84-.28.54-.44,1.15-.67,1.71A9.74,9.74,0,0,1,181.28,32.55Z" fill="#1c3765"/><path d="M192.14,48.11h4.07a3.34,3.34,0,0,0,.86-.1,1.45,1.45,0,0,0,.65-.38,2.64,2.64,0,0,0,.51-.78,9.77,9.77,0,0,0,.45-1.26h.76l-.78,4.68h-9.52v-.72q2.33-2.24,3.84-3.92a24.55,24.55,0,0,0,2.36-3,9.64,9.64,0,0,0,1.19-2.47,8.21,8.21,0,0,0,.33-2.3,4.39,4.39,0,0,0-.75-2.7,2.42,2.42,0,0,0-2-1,2.55,2.55,0,0,0-2,.86,3.2,3.2,0,0,0-.77,2.22,2.8,2.8,0,0,0,.6,1.89,2.06,2.06,0,0,0,1.65.7,1.34,1.34,0,0,1-.53.85A1.74,1.74,0,0,1,192,41a2.31,2.31,0,0,1-1.05-.24,2.54,2.54,0,0,1-.84-.68,3.16,3.16,0,0,1-.55-1,4.31,4.31,0,0,1-.19-1.33,4.26,4.26,0,0,1,.39-1.82,4.4,4.4,0,0,1,1.06-1.44,5.07,5.07,0,0,1,1.61-1,5.67,5.67,0,0,1,2-.35,5.42,5.42,0,0,1,2,.35,4.61,4.61,0,0,1,1.56,1,4.44,4.44,0,0,1,1,1.5,5,5,0,0,1,.36,1.92,6.69,6.69,0,0,1-.56,2.67,11.8,11.8,0,0,1-1.55,2.57,21.1,21.1,0,0,1-2.29,2.48q-1.31,1.22-2.8,2.41Z" fill="#1c3765"/><path d="M206,33.12a4.41,4.41,0,0,1,2.35.68,6.46,6.46,0,0,1,1.92,1.87,9.87,9.87,0,0,1,1.3,2.79,12,12,0,0,1,.48,3.47,11.28,11.28,0,0,1-.48,3.34,9.47,9.47,0,0,1-1.3,2.71,6.47,6.47,0,0,1-1.92,1.82,4.47,4.47,0,0,1-4.71,0A6.47,6.47,0,0,1,201.72,48a9.46,9.46,0,0,1-1.3-2.71,11.27,11.27,0,0,1-.48-3.34,12,12,0,0,1,.48-3.47,9.85,9.85,0,0,1,1.3-2.79,6.45,6.45,0,0,1,1.92-1.87A4.41,4.41,0,0,1,206,33.12Zm0,16.3a2.85,2.85,0,0,0,1.42-.35,2.79,2.79,0,0,0,1.06-1.21,7.89,7.89,0,0,0,.68-2.28,22.64,22.64,0,0,0,.24-3.58,24.67,24.67,0,0,0-.24-3.73,9,9,0,0,0-.66-2.41,2.9,2.9,0,0,0-1.06-1.3,2.86,2.86,0,0,0-2.87,0,2.9,2.9,0,0,0-1.06,1.3,9,9,0,0,0-.67,2.41A24.64,24.64,0,0,0,202.6,42a22.61,22.61,0,0,0,.24,3.58,8.13,8.13,0,0,0,.67,2.28,2.7,2.7,0,0,0,1.06,1.21A2.91,2.91,0,0,0,206,49.42Z" fill="#1c3765"/><path d="M192.14,48.11h4.07a3.34,3.34,0,0,0,.86-.1,1.45,1.45,0,0,0,.65-.38,2.64,2.64,0,0,0,.51-.78,9.77,9.77,0,0,0,.45-1.26h.76l-.78,4.68h-9.52v-.72q2.33-2.24,3.84-3.92a24.55,24.55,0,0,0,2.36-3,9.64,9.64,0,0,0,1.19-2.47,8.21,8.21,0,0,0,.33-2.3,4.39,4.39,0,0,0-.75-2.7,2.42,2.42,0,0,0-2-1,2.55,2.55,0,0,0-2,.86,3.2,3.2,0,0,0-.77,2.22,2.8,2.8,0,0,0,.6,1.89,2.06,2.06,0,0,0,1.65.7,1.34,1.34,0,0,1-.53.85A1.74,1.74,0,0,1,192,41a2.31,2.31,0,0,1-1.05-.24,2.54,2.54,0,0,1-.84-.68,3.16,3.16,0,0,1-.55-1,4.31,4.31,0,0,1-.19-1.33,4.26,4.26,0,0,1,.39-1.82,4.4,4.4,0,0,1,1.06-1.44,5.07,5.07,0,0,1,1.61-1,5.67,5.67,0,0,1,2-.35,5.42,5.42,0,0,1,2,.35,4.61,4.61,0,0,1,1.56,1,4.44,4.44,0,0,1,1,1.5,5,5,0,0,1,.36,1.92,6.69,6.69,0,0,1-.56,2.67,11.8,11.8,0,0,1-1.55,2.57,21.1,21.1,0,0,1-2.29,2.48q-1.31,1.22-2.8,2.41Z" fill="#1c3765"/><path d="M206,33.12a4.41,4.41,0,0,1,2.35.68,6.46,6.46,0,0,1,1.92,1.87,9.87,9.87,0,0,1,1.3,2.79,12,12,0,0,1,.48,3.47,11.28,11.28,0,0,1-.48,3.34,9.47,9.47,0,0,1-1.3,2.71,6.47,6.47,0,0,1-1.92,1.82,4.47,4.47,0,0,1-4.71,0A6.47,6.47,0,0,1,201.72,48a9.46,9.46,0,0,1-1.3-2.71,11.27,11.27,0,0,1-.48-3.34,12,12,0,0,1,.48-3.47,9.85,9.85,0,0,1,1.3-2.79,6.45,6.45,0,0,1,1.92-1.87A4.41,4.41,0,0,1,206,33.12Zm0,16.3a2.85,2.85,0,0,0,1.42-.35,2.79,2.79,0,0,0,1.06-1.21,7.89,7.89,0,0,0,.68-2.28,22.64,22.64,0,0,0,.24-3.58,24.67,24.67,0,0,0-.24-3.73,9,9,0,0,0-.66-2.41,2.9,2.9,0,0,0-1.06-1.3,2.86,2.86,0,0,0-2.87,0,2.9,2.9,0,0,0-1.06,1.3,9,9,0,0,0-.67,2.41A24.64,24.64,0,0,0,202.6,42a22.61,22.61,0,0,0,.24,3.58,8.13,8.13,0,0,0,.67,2.28,2.7,2.7,0,0,0,1.06,1.21A2.91,2.91,0,0,0,206,49.42Z" fill="#1c3765"/><path d="M192.14,48.11h4.07a3.34,3.34,0,0,0,.86-.1,1.45,1.45,0,0,0,.65-.38,2.64,2.64,0,0,0,.51-.78,9.77,9.77,0,0,0,.45-1.26h.76l-.78,4.68h-9.52v-.72q2.33-2.24,3.84-3.92a24.55,24.55,0,0,0,2.36-3,9.64,9.64,0,0,0,1.19-2.47,8.21,8.21,0,0,0,.33-2.3,4.39,4.39,0,0,0-.75-2.7,2.42,2.42,0,0,0-2-1,2.55,2.55,0,0,0-2,.86,3.2,3.2,0,0,0-.77,2.22,2.8,2.8,0,0,0,.6,1.89,2.06,2.06,0,0,0,1.65.7,1.34,1.34,0,0,1-.53.85A1.74,1.74,0,0,1,192,41a2.31,2.31,0,0,1-1.05-.24,2.54,2.54,0,0,1-.84-.68,3.16,3.16,0,0,1-.55-1,4.31,4.31,0,0,1-.19-1.33,4.26,4.26,0,0,1,.39-1.82,4.4,4.4,0,0,1,1.06-1.44,5.07,5.07,0,0,1,1.61-1,5.67,5.67,0,0,1,2-.35,5.42,5.42,0,0,1,2,.35,4.61,4.61,0,0,1,1.56,1,4.44,4.44,0,0,1,1,1.5,5,5,0,0,1,.36,1.92,6.69,6.69,0,0,1-.56,2.67,11.8,11.8,0,0,1-1.55,2.57,21.1,21.1,0,0,1-2.29,2.48q-1.31,1.22-2.8,2.41Z" fill="#1c3765"/><path d="M206,33.12a4.41,4.41,0,0,1,2.35.68,6.46,6.46,0,0,1,1.92,1.87,9.87,9.87,0,0,1,1.3,2.79,12,12,0,0,1,.48,3.47,11.28,11.28,0,0,1-.48,3.34,9.47,9.47,0,0,1-1.3,2.71,6.47,6.47,0,0,1-1.92,1.82,4.47,4.47,0,0,1-4.71,0A6.47,6.47,0,0,1,201.72,48a9.46,9.46,0,0,1-1.3-2.71,11.27,11.27,0,0,1-.48-3.34,12,12,0,0,1,.48-3.47,9.85,9.85,0,0,1,1.3-2.79,6.45,6.45,0,0,1,1.92-1.87A4.41,4.41,0,0,1,206,33.12Zm0,16.3a2.85,2.85,0,0,0,1.42-.35,2.79,2.79,0,0,0,1.06-1.21,7.89,7.89,0,0,0,.68-2.28,22.64,22.64,0,0,0,.24-3.58,24.67,24.67,0,0,0-.24-3.73,9,9,0,0,0-.66-2.41,2.9,2.9,0,0,0-1.06-1.3,2.86,2.86,0,0,0-2.87,0,2.9,2.9,0,0,0-1.06,1.3,9,9,0,0,0-.67,2.41A24.64,24.64,0,0,0,202.6,42a22.61,22.61,0,0,0,.24,3.58,8.13,8.13,0,0,0,.67,2.28,2.7,2.7,0,0,0,1.06,1.21A2.91,2.91,0,0,0,206,49.42Z" fill="#1c3765"/><path d="M212,34v-.25a2.49,2.49,0,0,0,.53-.42,1.46,1.46,0,0,0,.29-.51H213v.86h.85V34H213V36.1a3,3,0,0,0,0,.4.82.82,0,0,0,.07.26.3.3,0,0,0,.13.14.47.47,0,0,0,.21,0,.49.49,0,0,0,.27-.07.78.78,0,0,0,.22-.24l.16.13a.71.71,0,0,1-.31.39,1,1,0,0,1-.54.13.88.88,0,0,1-.64-.22.83.83,0,0,1-.22-.62V34Z" fill="#1c3765"/><path d="M215.48,36.12q0,.28,0,.44a.55.55,0,0,0,.07.25.25.25,0,0,0,.16.11l.29,0v.24h-1.69V37l.29,0a.27.27,0,0,0,.17-.11.5.5,0,0,0,.07-.24c0-.1,0-.24,0-.41V33.31q0-.4,0-.64a2.43,2.43,0,0,0,0-.36.4.4,0,0,0,0-.13.21.21,0,0,0-.09-.08l-.15,0h-.24V31.8l1.17-.26v2.6h0a1.18,1.18,0,0,1,.24-.25,1.77,1.77,0,0,1,.31-.19,1.82,1.82,0,0,1,.35-.13,1.38,1.38,0,0,1,.35,0,1.3,1.3,0,0,1,.54.11.91.91,0,0,1,.38.29,1.11,1.11,0,0,1,.16.41,3.72,3.72,0,0,1,.05.69v1.09c0,.19,0,.33,0,.44a.56.56,0,0,0,.07.25.25.25,0,0,0,.16.12l.29,0v.24H216.7V37a1.21,1.21,0,0,0,.29,0,.27.27,0,0,0,.16-.11.53.53,0,0,0,.07-.24c0-.1,0-.24,0-.41v-.86a2.59,2.59,0,0,0-.17-1.09.57.57,0,0,0-.55-.32,1,1,0,0,0-.54.16,1.12,1.12,0,0,0-.39.45l-.05.14a.84.84,0,0,0,0,.15,1.5,1.5,0,0,0,0,.19c0,.07,0,.16,0,.26Z" fill="#1c3765"/><path d="M212,34v-.25a2.49,2.49,0,0,0,.53-.42,1.46,1.46,0,0,0,.29-.51H213v.86h.85V34H213V36.1a3,3,0,0,0,0,.4.82.82,0,0,0,.07.26.3.3,0,0,0,.13.14.47.47,0,0,0,.21,0,.49.49,0,0,0,.27-.07.78.78,0,0,0,.22-.24l.16.13a.71.71,0,0,1-.31.39,1,1,0,0,1-.54.13.88.88,0,0,1-.64-.22.83.83,0,0,1-.22-.62V34Z" fill="#1c3765"/><path d="M215.48,36.12q0,.28,0,.44a.55.55,0,0,0,.07.25.25.25,0,0,0,.16.11l.29,0v.24h-1.69V37l.29,0a.27.27,0,0,0,.17-.11.5.5,0,0,0,.07-.24c0-.1,0-.24,0-.41V33.31q0-.4,0-.64a2.43,2.43,0,0,0,0-.36.4.4,0,0,0,0-.13.21.21,0,0,0-.09-.08l-.15,0h-.24V31.8l1.17-.26v2.6h0a1.18,1.18,0,0,1,.24-.25,1.77,1.77,0,0,1,.31-.19,1.82,1.82,0,0,1,.35-.13,1.38,1.38,0,0,1,.35,0,1.3,1.3,0,0,1,.54.11.91.91,0,0,1,.38.29,1.11,1.11,0,0,1,.16.41,3.72,3.72,0,0,1,.05.69v1.09c0,.19,0,.33,0,.44a.56.56,0,0,0,.07.25.25.25,0,0,0,.16.12l.29,0v.24H216.7V37a1.21,1.21,0,0,0,.29,0,.27.27,0,0,0,.16-.11.53.53,0,0,0,.07-.24c0-.1,0-.24,0-.41v-.86a2.59,2.59,0,0,0-.17-1.09.57.57,0,0,0-.55-.32,1,1,0,0,0-.54.16,1.12,1.12,0,0,0-.39.45l-.05.14a.84.84,0,0,0,0,.15,1.5,1.5,0,0,0,0,.19c0,.07,0,.16,0,.26Z" fill="#1c3765"/><path d="M212,34v-.25a2.49,2.49,0,0,0,.53-.42,1.46,1.46,0,0,0,.29-.51H213v.86h.85V34H213V36.1a3,3,0,0,0,0,.4.82.82,0,0,0,.07.26.3.3,0,0,0,.13.14.47.47,0,0,0,.21,0,.49.49,0,0,0,.27-.07.78.78,0,0,0,.22-.24l.16.13a.71.71,0,0,1-.31.39,1,1,0,0,1-.54.13.88.88,0,0,1-.64-.22.83.83,0,0,1-.22-.62V34Z" fill="#1c3765"/><path d="M215.48,36.12q0,.28,0,.44a.55.55,0,0,0,.07.25.25.25,0,0,0,.16.11l.29,0v.24h-1.69V37l.29,0a.27.27,0,0,0,.17-.11.5.5,0,0,0,.07-.24c0-.1,0-.24,0-.41V33.31q0-.4,0-.64a2.43,2.43,0,0,0,0-.36.4.4,0,0,0,0-.13.21.21,0,0,0-.09-.08l-.15,0h-.24V31.8l1.17-.26v2.6h0a1.18,1.18,0,0,1,.24-.25,1.77,1.77,0,0,1,.31-.19,1.82,1.82,0,0,1,.35-.13,1.38,1.38,0,0,1,.35,0,1.3,1.3,0,0,1,.54.11.91.91,0,0,1,.38.29,1.11,1.11,0,0,1,.16.41,3.72,3.72,0,0,1,.05.69v1.09c0,.19,0,.33,0,.44a.56.56,0,0,0,.07.25.25.25,0,0,0,.16.12l.29,0v.24H216.7V37a1.21,1.21,0,0,0,.29,0,.27.27,0,0,0,.16-.11.53.53,0,0,0,.07-.24c0-.1,0-.24,0-.41v-.86a2.59,2.59,0,0,0-.17-1.09.57.57,0,0,0-.55-.32,1,1,0,0,0-.54.16,1.12,1.12,0,0,0-.39.45l-.05.14a.84.84,0,0,0,0,.15,1.5,1.5,0,0,0,0,.19c0,.07,0,.16,0,.26Z" fill="#1c3765"/><path d="M206.93,60.59l-1.71-8.81A5.82,5.82,0,0,0,205,51a.27.27,0,0,0-.24-.17q-.29,0-.52.46-.24.62-.76,1.84l-.8-.25q1.65-4.15,3.16-4.15,1,0,1.4,2L208.65,58q.53-.91,1.57-2.76A5.9,5.9,0,0,0,211,52.6a4.08,4.08,0,0,0-.32-1.31,4.08,4.08,0,0,1-.32-1.25q0-1.3,1.51-1.3,1,.2,1.17,1.56,0,2.37-2.56,7a29.44,29.44,0,0,1-2.69,4.16,18.32,18.32,0,0,1-2.44,2.6,5.71,5.71,0,0,1-3.53,1.51q-1.62,0-1.62-1.17a1.07,1.07,0,0,1,.52-.92,1.88,1.88,0,0,1,1.09-.33,4.9,4.9,0,0,1,.92.13,4.14,4.14,0,0,0,.94.12q1,0,2.52-1.93Z" fill="#1c3765" stroke="#fff" stroke-miterlimit="10" stroke-width="0.57"/><path d="M216.45,56.84a6.4,6.4,0,0,0-.08,1.14q0,2,1.57,2a4,4,0,0,0,2.41-1,9.72,9.72,0,0,0,1.82-1.88l.67.36a8,8,0,0,1-3.59,3.24,4.41,4.41,0,0,1-1.71.39A3.24,3.24,0,0,1,215,60.07a4.39,4.39,0,0,1-1-2.79,5.52,5.52,0,0,1,.2-1.49,11.06,11.06,0,0,1,1.45-3.38A9.66,9.66,0,0,1,216.77,51a6.24,6.24,0,0,1,4.38-2.29q2.46,0,2.49,2.15a4.43,4.43,0,0,1-1.88,3.25A15.06,15.06,0,0,1,216.45,56.84Zm.1-.91a8.25,8.25,0,0,0,2.38-1.18,10.88,10.88,0,0,0,2-1.73,3.39,3.39,0,0,0,1-2.19,1.25,1.25,0,0,0-.19-.73.72.72,0,0,0-.67-.32q-1.13,0-2.62,1.86A9.23,9.23,0,0,0,216.55,55.93Z" fill="#1c3765" stroke="#fff" stroke-miterlimit="10" stroke-width="0.28"/><path d="M231.44,58q-1.5,3.21-4.38,3.21a2.84,2.84,0,0,1-2.19-1.16,3.72,3.72,0,0,1-.65-2.34,8.74,8.74,0,0,1,.92-3.65,11.16,11.16,0,0,1,2.23-3.16,10.08,10.08,0,0,1,1.53-1.25,5.66,5.66,0,0,1,1.44-.72,5.43,5.43,0,0,1,1.6-.24,2.13,2.13,0,0,1,2.24,1.39l.37-1.16h2.29l-2.89,7.72a20.75,20.75,0,0,1-.73,2.29,1,1,0,0,0,.36.42,3.44,3.44,0,0,0,1.87-1.6q.37-.56.74-1.22l.7.44q-.92,1.43-1.43,2.09a6.18,6.18,0,0,1-1.78,1.76,2.49,2.49,0,0,1-1.17.29,1.17,1.17,0,0,1-1.16-.65,6.67,6.67,0,0,1-.33-.77,5.71,5.71,0,0,1,.47-1.66Zm-4.9.51a.67.67,0,0,1,.05.3A1.28,1.28,0,0,0,227.83,60a4.17,4.17,0,0,0,2.62-1.76A19.84,19.84,0,0,0,232,55.44a10.61,10.61,0,0,0,1.44-4.31q0-1.3-1.27-1.3a3.16,3.16,0,0,0-2.09.81,10.08,10.08,0,0,0-2.69,4.28,15.67,15.67,0,0,0-.53,1.69A13.59,13.59,0,0,0,226.54,58.54Z" fill="#1c3765" stroke="#fff" stroke-miterlimit="10" stroke-width="0.28"/><path d="M249.5,50q0,1-1.32,1.31l-1.08.26q-1,.24-2.47,2.48-1.07,1.67-2,3.38-.64,1.19-2,3.53h-1.87l3.16-8.64a3.38,3.38,0,0,0,.25-1.07q0-.63-.42-.63h-.15A3.94,3.94,0,0,0,240,52.27l-.7,1.17-.73-.42a14.63,14.63,0,0,1,2.86-3.68,2.25,2.25,0,0,1,1.4-.61,1.24,1.24,0,0,1,1,.49,1.65,1.65,0,0,1,.36,1.07A8,8,0,0,1,243.7,53q-.42,1-1.21,2.94l.05,0L244,53.37a27.71,27.71,0,0,1,1.6-2.54q1.5-2.1,2.69-2.1A1.09,1.09,0,0,1,249.5,50" fill="#1c3765" stroke="#fff" stroke-miterlimit="10" stroke-width="0.28"/>
</svg>
